<?xml version="1.0"?>
<svg version="1.1" height="244" width="244" xmlns="http://www.w3.org/2000/svg">
  <g fill="#280b86" stroke="#fff" stroke-width="5.33">
    <path d="m 94.812152,237.4216 c -25.63287,-5.04792 -45.24223,-13.82401 -42.28631,-26.83861 8.33417,-21.321 15.4805,-49.74849 13.47879,-82.3474 50.17992,-2.18242 85.33438,-16.69236 119.36291,-20.11616 -10.27091,48.14699 9.65358,96.69595 10.1922,105.61497 -2.44377,14.25143 -57.94206,32.1169 -100.74759,23.6872 z"/>
    <path d="m 154.159162,60.44907 -24.53607,2.29669 -16.51453,18.29109 -9.76631,-22.6255 -22.49914,-10.05401 18.50015,-16.27997 2.6093,-24.50481 21.20005,12.5639 24.11176,-5.09079 -5.39778,24.0449 z"/>
    <path d="m 226.446442,22.34888 -9.89252,9.54077 -0.83005,13.71858 -12.13077,-6.4601 -13.30365,3.44984 2.3953,-13.53334 -7.39204,-11.58644 13.61114,-1.90397 8.73512,-10.61067 6.01684,12.35664 z"/>
    <path d="m 61.110312,61.56115 c -10.23517,-0.0481 -21.75388,0.80131 -29.04492,2.29688 -54.615442,11.20276 -21.757529,51.7008 7.96875,54.76367 36.0223,8.26408 121.34982,-15.80872 155.90429,-21.6543 4.57131,-0.77309 8.86837,-1.29271 11.40235,-1.43164 14.28591,-0.78298 27.56107,2.91898 30.27343,3.75781 0.54962,0.1377 5.59917,2.38214 2.85352,-3.13085 -2.1601,-4.3373 -24.39347,-18.11204 -39.04328,-20.99357 -11.44327,-3.75817 -23.37352,-8.49386 -36.03982,-7.58912 -15.66085,1.11864 -36.78797,19.85191 -27.77029,19.71797 8.88988,-0.13203 20.0699,-8.09482 29.97864,-7.96594 7.25691,0.0944 24.68794,1.95511 21.1509,7.09359 -3.49529,4.22455 -55.96545,9.01684 -96.12771,7.45972 -24.22646,-0.93936 -50.66964,-11.82218 -40.76758,-19.32226 11.77572,-8.91918 32.78009,-7.79515 30.60547,-9.91016 -2.15659,-2.09748 -11.10858,-3.04372 -21.34375,-3.0918 z"/>
  </g>
</svg>
